<svg xmlns="http://www.w3.org/2000/svg" viewBox="0 0 64 64" id="Image"><g stroke-linejoin="round" stroke-linecap="round" stroke="#464747" fill="none"><g stroke-width="2"><path d="m19 40c3 9 8 12 13 12s10-3 13-12c0 0 4-1 4-6v-.012a4.275 4.275 0 0 0 -3.538-4.2 22.368 22.368 0 0 1 -14.582-9.458"></path><path d="m29 17a21.3 21.3 0 0 0 1.88 3.33 15.157 15.157 0 0 1 -12.244 9.555 4.148 4.148 0 0 0 -3.636 4.109v.006c0 5 4 6 4 6"></path><path d="m39.01 49.58c.15 9.5 4.03 11.44 5.99 12.42"></path><path d="m19 62c1.96-.98 5.84-2.92 5.99-12.42"></path><path d="m16.71 30.65c-.02-.13-.04-.27-.07-.41a43.524 43.524 0 0 1 -.64-7.24c0-8 7-13 16-13s16 5 16 13a43.342 43.342 0 0 1 -.7 7.58"></path><path d="m22.3 12.37c-2.45-6.91 3.19-10.37 9.7-10.37s12.15 3.46 9.7 10.37"></path><path d="m49 44 3-2 2 3"></path><path d="m15 44-3-2-2 3"></path><path d="m52 42a21.041 21.041 0 0 1 -7 12"></path><path d="m12 42a21.041 21.041 0 0 0 7 12"></path><path d="m42 35h-1c-3 2-5 0-5 0l-.011-.006"></path><path d="m22 35h1c3 2 5 0 5 0l.011-.006"></path></g><path stroke-width="1.956" d="m28.5 45 .041.032s.864.968 3.459.968 3.459-.968 3.459-.968l.041-.032"></path></g></svg>