<svg xmlns="http://www.w3.org/2000/svg" width="512" viewBox="0 0 512 512" height="512" id="Capa_1"><g><g><path d="m185.882 469.345c-3.704-1.859-8.211-.36-10.066 3.342-7.96 15.873-16.577 27.118-16.663 27.23-2.529 3.278-1.925 7.985 1.352 10.517 1.365 1.055 2.979 1.566 4.581 1.566 2.242 0 4.462-1.002 5.939-2.915.386-.5 9.554-12.433 18.199-29.674 1.856-3.702.36-8.209-3.342-10.066z"></path><path d="m327.766 452.629c-3.863-11.597-5.509-25.794-6.204-36.663l26.923-26.934c2.928-2.93 2.927-7.678-.003-10.606-2.929-2.929-7.678-2.927-10.606.002l-48.643 48.664c-4.618 4.626-11.016 7.279-17.553 7.279h-31.36c-6.537 0-12.935-2.653-17.556-7.282l-53.446-53.476c-8.563-8.581-13.976-19.926-15.24-31.952l-12.834-121.135c9.918-8.656 49.345-38.977 114.756-38.977 65.429 0 104.86 30.339 114.755 38.977l-12.835 121.147c-.392 3.743-1.187 7.455-2.365 11.034-1.295 3.935.845 8.174 4.778 9.469.779.256 1.569.378 2.347.378 3.15 0 6.084-2.001 7.123-5.157 1.512-4.594 2.533-9.36 3.034-14.155l3.94-37.186 10.614-3.519c14.639-4.854 25.21-17.333 27.59-32.569l4.786-30.628c1.145-7.33-.965-14.766-5.789-20.401-3.214-3.755-7.405-6.435-12.037-7.81-.752-9.72-3.189-19.224-7.121-28.062v-6.867c0-50.056-26.633-94.005-66.471-118.432-7.577-33.673-37.473-57.768-72.349-57.768-34.851 0-64.727 24.061-72.331 57.696-7.284 4.451-14.191 9.594-20.622 15.395-3.076 2.774-3.32 7.517-.546 10.592 2.777 3.077 7.519 3.318 10.593.545 22.767-20.537 52.211-31.848 82.906-31.848 62.407 0 114.169 46.411 122.607 106.529-.439-.457-.865-.926-1.315-1.373-22.737-22.558-62.238-49.449-121.292-49.449s-98.555 26.891-121.292 49.449c-.452.449-.879.92-1.321 1.379 2.467-17.625 8.691-34.505 18.372-49.559 2.24-3.484 1.231-8.125-2.252-10.365-3.484-2.239-8.124-1.233-10.365 2.251-14.367 22.344-21.962 48.263-21.962 74.957v6.863c-3.932 8.838-6.369 18.342-7.121 28.062-4.632 1.376-8.823 4.056-12.037 7.81-4.824 5.636-6.934 13.072-5.789 20.402l4.786 30.627c2.38 15.236 12.951 27.716 27.59 32.57l10.614 3.519 3.939 37.18c1.622 15.421 8.562 29.973 19.544 40.978l31.736 31.753c-.46 7.174-1.399 16.617-3.32 25.728-.854 4.053 1.738 8.032 5.792 8.886.521.11 1.042.163 1.555.163 3.471 0 6.586-2.423 7.331-5.954 1.067-5.061 1.855-10.188 2.437-15.02l7.917 7.921c7.411 7.423 17.678 11.681 28.168 11.681h31.359c10.49 0 20.757-4.258 28.165-11.678l7.921-7.925c1.09 9.076 2.867 18.89 5.769 27.603 9.384 28.164 26.707 50.766 27.44 51.715 1.478 1.912 3.695 2.913 5.938 2.913 1.6 0 3.213-.51 4.577-1.563 3.278-2.529 3.885-7.238 1.357-10.518-.164-.21-16.527-21.611-25.082-47.286zm-124.814-404.734c9.749-19.742 30.034-32.895 53.048-32.895 23.028 0 43.323 13.169 53.065 32.931-16.357-6.793-34.279-10.551-53.065-10.551-18.393 0-36.384 3.626-53.048 10.515zm201.995 189.127-4.786 30.628c-1.509 9.658-8.211 17.57-17.49 20.647l-4.158 1.379 6.845-64.608h9.359c3.029 0 5.896 1.32 7.866 3.621 1.97 2.302 2.832 5.339 2.364 8.333zm-259.674-68.838c20.736-20.573 56.78-45.097 110.727-45.097s89.991 24.524 110.727 45.097c11.25 11.162 18.354 26.114 20.079 41.884h-5.2c-10.26-9.344-52.774-43.521-125.606-43.521s-115.347 34.177-125.606 43.521h-5.2c1.724-15.769 8.829-30.722 20.079-41.884zm-15.944 120.113c-9.279-3.077-15.981-10.989-17.49-20.647l-4.786-30.627c-.468-2.994.395-6.031 2.364-8.333 1.97-2.301 4.837-3.621 7.866-3.621h9.359l6.845 64.608z"></path><path d="m344.004 307.166c.323-2.093.6-4.215.82-6.306.437-4.119-2.55-7.812-6.669-8.248-4.132-.436-7.811 2.551-8.247 6.669-.196 1.854-.441 3.737-.729 5.594-.633 4.093 2.174 7.925 6.267 8.557.389.06.774.089 1.154.089 3.637.001 6.832-2.649 7.404-6.355z"></path><path d="m181.409 347.965c1.339 2.56 3.949 4.024 6.65 4.024 1.172 0 2.361-.275 3.472-.856 3.67-1.921 5.088-6.453 3.167-10.123-1.604-3.066-3.087-6.239-4.407-9.43-1.585-3.828-5.971-5.649-9.798-4.062-3.828 1.583-5.646 5.97-4.062 9.798 1.491 3.604 3.166 7.187 4.978 10.649z"></path><path d="m210.385 363.845c-2.735-3.111-7.475-3.415-10.585-.679s-3.414 7.475-.679 10.585c2.574 2.927 5.315 5.777 8.148 8.47 1.451 1.38 3.311 2.065 5.167 2.065 1.982 0 3.962-.782 5.436-2.332 2.854-3.001 2.735-7.749-.267-10.604-2.509-2.386-4.939-4.911-7.22-7.505z"></path><path d="m331.515 327.501c-3.824-1.584-8.213.235-9.798 4.062-1.322 3.198-2.806 6.371-4.407 9.432-1.92 3.67-.502 8.202 3.168 10.122 1.11.581 2.3.856 3.472.856 2.701 0 5.312-1.464 6.651-4.024 1.809-3.456 3.483-7.04 4.977-10.65 1.583-3.828-.235-8.214-4.063-9.798z"></path><path d="m239.488 390.839c-3.099-2.748-7.84-2.46-10.587.639-2.747 3.1-2.461 7.84.64 10.587l8.298 7.353c1.427 1.265 3.202 1.887 4.971 1.887 2.072 0 4.134-.854 5.616-2.526 2.747-3.1 2.461-7.84-.64-10.587z"></path><path d="m301.627 363.832c-2.281 2.594-4.711 5.12-7.22 7.507-3.002 2.855-3.12 7.603-.265 10.604 1.474 1.55 3.452 2.331 5.435 2.331 1.856 0 3.717-.686 5.168-2.066 2.831-2.693 5.571-5.542 8.146-8.469 2.735-3.11 2.432-7.849-.679-10.585-3.11-2.736-7.85-2.433-10.585.678z"></path><path d="m272.527 390.825-8.298 7.353c-3.101 2.747-3.387 7.487-.64 10.587 1.482 1.673 3.544 2.526 5.616 2.526 1.768 0 3.544-.622 4.971-1.887l8.298-7.353c3.101-2.747 3.387-7.487.64-10.587-2.747-3.099-7.487-3.386-10.587-.639z"></path><path d="m182.82 304.875c-.287-1.857-.532-3.74-.729-5.594-.436-4.119-4.119-7.101-8.247-6.669-4.119.436-7.105 4.128-6.669 8.248.221 2.091.497 4.213.82 6.306.572 3.706 3.766 6.356 7.403 6.356.38 0 .767-.029 1.154-.089 4.095-.633 6.901-4.465 6.268-8.558z"></path><path d="m441.244 357.7-15.153-27.534c-1.996-3.628-6.559-4.951-10.187-2.955l-27.535 15.153c-3.629 1.997-4.951 6.558-2.954 10.187 1.996 3.628 6.559 4.951 10.187 2.955l11.873-6.534c-10.869 32.992-30.195 62.378-56.47 85.66-3.101 2.747-3.387 7.487-.64 10.587 1.482 1.673 3.544 2.526 5.616 2.526 1.768 0 3.544-.622 4.971-1.887 28.331-25.103 49.155-56.802 60.84-92.396l6.312 11.47c1.366 2.482 3.931 3.885 6.577 3.885 1.223 0 2.463-.3 3.609-.931 3.629-1.996 4.951-6.557 2.954-10.186z"></path><path d="m161.636 445.219c2.747-3.1 2.461-7.84-.64-10.587-26.274-23.281-45.6-52.667-56.47-85.66l11.873 6.534c3.628 1.997 8.191.674 10.187-2.955 1.997-3.629.675-8.19-2.954-10.187l-27.534-15.153c-3.629-1.997-8.189-.674-10.187 2.955l-15.155 27.534c-1.997 3.629-.675 8.189 2.954 10.187 1.146.631 2.387.931 3.609.931 2.646 0 5.212-1.403 6.577-3.885l6.313-11.47c11.685 35.595 32.51 67.294 60.84 92.396 1.428 1.265 3.202 1.887 4.971 1.887 2.072 0 4.134-.854 5.616-2.527z"></path></g></g></svg>